<svg width="164" height="67" viewBox="0 0 164 67" fill="none" xmlns="http://www.w3.org/2000/svg">
<rect x="88.5" y="47.5" width="7" height="7" fill="black" stroke="black"/>
<rect x="148.5" y="59.5" width="7" height="7" fill="black" stroke="black"/>
<rect x="148.5" y="51.5" width="7" height="7" fill="black" stroke="black"/>
<rect x="148.5" y="43.5" width="7" height="7" fill="black" stroke="black"/>
<rect x="156.5" y="35.5" width="7" height="7" fill="black" stroke="black"/>
<rect x="148.5" y="35.5" width="7" height="7" fill="black" stroke="black"/>
<rect x="140.5" y="35.5" width="7" height="7" fill="black" stroke="black"/>
<rect x="108.5" y="59.5" width="7" height="7" fill="black" stroke="black"/>
<rect x="130.5" y="35.5" width="7" height="7" fill="black" stroke="black"/>
<rect x="130.5" y="43.5" width="7" height="7" fill="black" stroke="black"/>
<rect x="130.5" y="51.5" width="7" height="7" fill="black" stroke="black"/>
<rect x="130.5" y="59.5" width="7" height="7" fill="black" stroke="black"/>
<rect x="127.5" y="57.5" width="7" height="7" fill="black" stroke="black"/>
<rect x="124.5" y="53.5" width="7" height="7" fill="black" stroke="black"/>
<rect x="121.5" y="49.5" width="7" height="7" fill="black" stroke="black"/>
<rect x="118.5" y="45.5" width="7" height="7" fill="black" stroke="black"/>
<rect x="116.5" y="41.5" width="7" height="7" fill="black" stroke="black"/>
<rect x="112.5" y="37.5" width="7" height="7" fill="black" stroke="black"/>
<rect x="108.5" y="35.5" width="7" height="7" fill="black" stroke="black"/>
<rect x="108.5" y="43.5" width="7" height="7" fill="black" stroke="black"/>
<rect x="108.5" y="51.5" width="7" height="7" fill="black" stroke="black"/>
<rect x="88.5" y="39.5" width="7" height="7" fill="black" stroke="black"/>
<rect x="88.5" y="55.5" width="7" height="7" fill="black" stroke="black"/>
<rect x="84.5" y="59.5" width="7" height="7" fill="black" stroke="black"/>
<rect x="76.5" y="35.5" width="7" height="7" fill="black" stroke="black"/>
<rect x="84.5" y="35.5" width="7" height="7" fill="black" stroke="black"/>
<rect x="76.5" y="59.5" width="7" height="7" fill="black" stroke="black"/>
<rect x="72.5" y="55.5" width="7" height="7" fill="black" stroke="black"/>
<rect x="72.5" y="47.5" width="7" height="7" fill="black" stroke="black"/>
<rect x="72.5" y="39.5" width="7" height="7" fill="black" stroke="black"/>
<rect x="58.5" y="35.5" width="7" height="7" fill="black" stroke="black"/>
<rect x="58.5" y="51.5" width="7" height="7" fill="black" stroke="black"/>
<rect x="62.5" y="47.5" width="7" height="7" fill="black" stroke="black"/>
<rect x="62.5" y="39.5" width="7" height="7" fill="black" stroke="black"/>
<rect x="62.5" y="43.5" width="7" height="7" fill="black" stroke="black"/>
<rect x="54.5" y="51.5" width="7" height="7" fill="black" stroke="black"/>
<rect x="54.5" y="35.5" width="7" height="7" fill="black" stroke="black"/>
<rect x="46.5" y="59.5" width="7" height="7" fill="black" stroke="black"/>
<rect x="46.5" y="51.5" width="7" height="7" fill="black" stroke="black"/>
<rect x="46.5" y="43.5" width="7" height="7" fill="black" stroke="black"/>
<rect x="46.5" y="35.5" width="7" height="7" fill="black" stroke="black"/>
<rect x="100.5" y="24.5" width="7" height="7" fill="black" stroke="black"/>
<rect x="96.5" y="24.5" width="7" height="7" fill="black" stroke="black"/>
<rect x="88.5" y="8.5" width="7" height="7" fill="black" stroke="black"/>
<rect x="88.5" y="24.5" width="7" height="7" fill="black" stroke="black"/>
<rect x="88.5" y="16.5" width="7" height="7" fill="black" stroke="black"/>
<rect x="88.5" y="0.5" width="7" height="7" fill="black" stroke="black"/>
<rect x="78.5" y="0.5" width="7" height="7" fill="black" stroke="black"/>
<rect x="78.5" y="24.5" width="7" height="7" fill="black" stroke="black"/>
<rect x="66.5" y="0.5" width="7" height="7" fill="black" stroke="black"/>
<rect x="74.5" y="12.5" width="7" height="7" fill="black" stroke="black"/>
<rect x="74.5" y="24.5" width="7" height="7" fill="black" stroke="black"/>
<rect x="66.5" y="16.5" width="7" height="7" fill="black" stroke="black"/>
<rect x="74.5" y="0.5" width="7" height="7" fill="black" stroke="black"/>
<rect x="66.5" y="24.5" width="7" height="7" fill="black" stroke="black"/>
<rect x="66.5" y="8.5" width="7" height="7" fill="black" stroke="black"/>
<rect x="40.5" y="8.5" width="7" height="7" fill="black" stroke="black"/>
<rect x="36.5" y="4.5" width="7" height="7" fill="black" stroke="black"/>
<rect x="52.5" y="20.5" width="7" height="7" fill="black" stroke="black"/>
<rect x="48.5" y="12.5" width="7" height="7" fill="black" stroke="black"/>
<rect x="56.5" y="24.5" width="7" height="7" fill="black" stroke="black"/>
<rect x="52.5" y="8.5" width="7" height="7" fill="black" stroke="black"/>
<rect x="56.5" y="4.5" width="7" height="7" fill="black" stroke="black"/>
<rect x="44.5" y="16.5" width="7" height="7" fill="black" stroke="black"/>
<rect x="40.5" y="20.5" width="7" height="7" fill="black" stroke="black"/>
<rect x="36.5" y="24.5" width="7" height="7" fill="black" stroke="black"/>
<rect x="26.5" y="0.5" width="7" height="7" fill="black" stroke="black"/>
<rect x="12.5" y="0.5" width="7" height="7" fill="black" stroke="black"/>
<rect x="12.5" y="16.5" width="7" height="7" fill="black" stroke="black"/>
<rect x="16.5" y="4.5" width="7" height="7" fill="black" stroke="black"/>
<rect x="26.5" y="16.5" width="7" height="7" fill="black" stroke="black"/>
<rect x="26.5" y="24.5" width="7" height="7" fill="black" stroke="black"/>
<rect x="16.5" y="8.5" width="7" height="7" fill="black" stroke="black"/>
<rect x="16.5" y="12.5" width="7" height="7" fill="black" stroke="black"/>
<rect x="8.5" y="0.5" width="7" height="7" fill="black" stroke="black"/>
<path d="M33.5 8.5V15.5H26.5V8.5H33.5Z" fill="black" stroke="black"/>
<rect x="98.5" y="35.5" width="7" height="7" fill="black" stroke="black"/>
<rect x="98.5" y="51.5" width="7" height="7" fill="black" stroke="black"/>
<rect x="98.5" y="59.5" width="7" height="7" fill="black" stroke="black"/>
<path d="M105.5 43.5V50.5H98.5V43.5H105.5Z" fill="black" stroke="black"/>
<rect x="8.5" y="16.5" width="7" height="7" fill="black" stroke="black"/>
<rect x="0.5" y="0.5" width="7" height="7" fill="black" stroke="black"/>
<rect x="0.5" y="16.5" width="7" height="7" fill="black" stroke="black"/>
<rect x="0.5" y="24.5" width="7" height="7" fill="black" stroke="black"/>
<rect x="0.5" y="8.5" width="7" height="7" fill="black" stroke="black"/>
</svg>
